name C:/MyDriveSym/Projects/mobilecap/Data\Session20210816_0002\mocap\ForceDataProcessed\walking3_forces.mot
datacolumns 19
datarows 17
range 0.68950000 0.69750000
endheader 
time	R_ground_force_vx	R_ground_force_vy	R_ground_force_vz	R_ground_force_px	R_ground_force_py	R_ground_force_pz	R_ground_torque_x	R_ground_torque_y	R_ground_torque_z	L_ground_force_vx	L_ground_force_vy	L_ground_force_vz	L_ground_force_px	L_ground_force_py	L_ground_force_pz	L_ground_torque_x	L_ground_torque_y	L_ground_torque_z	
          0.68950000	         50.62370400	        155.97067200	          3.95496400	          0.29612100	          0.00600000	         -0.22293800	          0.00000000	          0.15169700	          0.00000000	       -103.83110700	        569.49543400	         20.96687800	          0.82870400	          0.00600000	         -0.31815800	          0.00000000	          0.46277800	          0.00000000	
          0.69000000	         50.10990000	        154.11474000	          3.97045900	          0.29632000	          0.00600000	         -0.22291200	          0.00000000	          0.15381700	          0.00000000	       -103.81807700	        570.43637100	         21.10256100	          0.82882400	          0.00600000	         -0.31815500	          0.00000000	          0.45940700	          0.00000000	
          0.69050000	         49.59756100	        152.26858700	          3.98522100	          0.29652100	          0.00600000	         -0.22288500	          0.00000000	          0.15587800	          0.00000000	       -103.80101800	        571.36922000	         21.23707200	          0.82894400	          0.00600000	         -0.31815200	          0.00000000	          0.45601900	          0.00000000	
          0.69100000	         49.08672400	        150.43228300	          3.99925600	          0.29672400	          0.00600000	         -0.22285800	          0.00000000	          0.15788200	          0.00000000	       -103.77994500	        572.29398400	         21.37040300	          0.82906400	          0.00600000	         -0.31814900	          0.00000000	          0.45261500	          0.00000000	
          0.69150000	         48.57743100	        148.60589500	          4.01257000	          0.29692800	          0.00600000	         -0.22283000	          0.00000000	          0.15982900	          0.00000000	       -103.75487700	        573.21066600	         21.50254800	          0.82918300	          0.00600000	         -0.31814600	          0.00000000	          0.44919400	          0.00000000	
          0.69200000	         48.06971700	        146.78948900	          4.02517200	          0.29713400	          0.00600000	         -0.22280200	          0.00000000	          0.16172000	          0.00000000	       -103.72583100	        574.11926800	         21.63350100	          0.82930100	          0.00600000	         -0.31814300	          0.00000000	          0.44575900	          0.00000000	
          0.69250000	         47.56362200	        144.98312900	          4.03706700	          0.29734200	          0.00600000	         -0.22277400	          0.00000000	          0.16355400	          0.00000000	       -103.69282500	        575.01979200	         21.76325500	          0.82942000	          0.00600000	         -0.31813900	          0.00000000	          0.44231000	          0.00000000	
          0.69300000	         47.05918200	        143.18687900	          4.04826200	          0.29755200	          0.00600000	         -0.22274500	          0.00000000	          0.16533300	          0.00000000	       -103.65587700	        575.91224100	         21.89180600	          0.82953700	          0.00600000	         -0.31813500	          0.00000000	          0.43884800	          0.00000000	
          0.69350000	         46.55643500	        141.40080000	          4.05876500	          0.29776400	          0.00600000	         -0.22271600	          0.00000000	          0.16705700	          0.00000000	       -103.61500500	        576.79661800	         22.01914700	          0.82965500	          0.00600000	         -0.31813100	          0.00000000	          0.43537200	          0.00000000	
          0.69400000	         46.05541700	        139.62495200	          4.06858400	          0.29797800	          0.00600000	         -0.22268700	          0.00000000	          0.16872600	          0.00000000	       -103.57023100	        577.67292400	         22.14527400	          0.82977200	          0.00600000	         -0.31812700	          0.00000000	          0.43188500	          0.00000000	
          0.69450000	         45.55616400	        137.85939300	          4.07772400	          0.29819400	          0.00600000	         -0.22265700	          0.00000000	          0.17034100	          0.00000000	       -103.52157200	        578.54116200	         22.27018300	          0.82988800	          0.00600000	         -0.31812300	          0.00000000	          0.42838700	          0.00000000	
          0.69500000	         45.05871100	        136.10418000	          4.08619300	          0.29841200	          0.00600000	         -0.22262600	          0.00000000	          0.17190200	          0.00000000	       -103.46905000	        579.40133400	         22.39386800	          0.83000500	          0.00600000	         -0.31811900	          0.00000000	          0.42487800	          0.00000000	
          0.69550000	         44.56309500	        134.35936700	          4.09399900	          0.29863200	          0.00600000	         -0.22259600	          0.00000000	          0.17341000	          0.00000000	       -103.41268400	        580.25344300	         22.51632700	          0.83012000	          0.00600000	         -0.31811400	          0.00000000	          0.42135900	          0.00000000	
          0.69600000	         44.06934900	        132.62500900	          4.10114900	          0.29885500	          0.00600000	         -0.22256400	          0.00000000	          0.17486600	          0.00000000	       -103.35249700	        581.09748900	         22.63755500	          0.83023600	          0.00600000	         -0.31810900	          0.00000000	          0.41783100	          0.00000000	
          0.69650000	         43.57750800	        130.90115700	          4.10765000	          0.29908000	          0.00600000	         -0.22253300	          0.00000000	          0.17627000	          0.00000000	       -103.28851000	        581.93347400	         22.75755000	          0.83035100	          0.00600000	         -0.31810400	          0.00000000	          0.41429500	          0.00000000	
          0.69700000	         43.08760600	        129.18786200	          4.11351100	          0.29930700	          0.00600000	         -0.22250000	          0.00000000	          0.17762100	          0.00000000	       -103.22074400	        582.76140200	         22.87630700	          0.83046500	          0.00600000	         -0.31809900	          0.00000000	          0.41075100	          0.00000000	
          0.69750000	         42.59967500	        127.48517200	          4.11873700	          0.29953700	          0.00600000	         -0.22246800	          0.00000000	          0.17892200	          0.00000000	       -103.14922200	        583.58127300	         22.99382500	          0.83058000	          0.00600000	         -0.31809400	          0.00000000	          0.40720100	          0.00000000	
